<?xml version="1.0" standalone="no"?>
<!DOCTYPE svg PUBLIC "-//W3C//DTD SVG 20010904//EN"
 "http://www.w3.org/TR/2001/REC-SVG-20010904/DTD/svg10.dtd">
<svg version="1.0" xmlns="http://www.w3.org/2000/svg"
 width="200.000000pt" height="200.000000pt" viewBox="0 0 200.000000 200.000000"
 preserveAspectRatio="xMidYMid meet">
<metadata>
Created by potrace 1.16, written by Peter Selinger 2001-2019
</metadata>
<g transform="translate(0.000000,200.000000) scale(0.100000,-0.100000)"
fill="#ffffff" stroke="none">
<path d="M655 1530 c-17 -27 16 -30 301 -30 l294 0 0 -23 c0 -13 -6 -32 -14
-43 -13 -18 -31 -19 -240 -24 -216 -5 -226 -6 -248 -27 -14 -15 -22 -35 -22
-57 0 -58 15 -66 116 -66 85 0 124 -9 140 -34 12 -18 9 -24 -14 -28 -14 -2
-24 -12 -28 -28 -6 -24 -9 -25 -105 -30 -82 -4 -106 -9 -131 -27 -41 -29 -64
-79 -64 -137 0 -83 37 -124 131 -145 58 -13 107 0 135 35 19 23 31 27 91 30
l70 4 40 -40 c37 -36 45 -40 92 -40 58 0 94 15 131 55 22 23 25 36 25 98 0 59
-4 78 -23 105 -38 53 -75 67 -174 67 -64 0 -88 3 -88 13 0 6 -9 21 -20 32 -11
11 -20 28 -20 38 0 10 -7 28 -16 40 -14 20 -23 22 -123 22 -127 0 -143 8 -116
60 l16 32 222 -4 c241 -3 275 2 295 48 15 31 2 65 -34 93 -26 20 -36 21 -320
21 -184 0 -295 -4 -299 -10z m375 -375 c0 -9 -9 -15 -25 -15 -16 0 -25 6 -25
15 0 9 9 15 25 15 16 0 25 -6 25 -15z m228 -65 c40 -25 72 -75 72 -115 0 -67
-76 -136 -134 -121 -15 4 -44 23 -66 42 -46 42 -88 50 -185 37 -48 -7 -60 -12
-63 -28 -2 -11 -8 -24 -12 -29 -14 -14 -121 -8 -147 9 -33 22 -56 80 -48 121
7 38 55 91 88 96 12 3 121 5 242 6 205 2 222 1 253 -18z"/>
<path d="M780 1025 c0 -20 -5 -25 -23 -25 -13 0 -26 -3 -30 -6 -12 -12 6 -34
29 -34 19 0 24 -5 24 -25 0 -16 6 -25 15 -25 9 0 15 9 15 25 0 21 5 25 30 25
23 0 30 4 30 20 0 16 -7 20 -30 20 -25 0 -30 4 -30 25 0 16 -6 25 -15 25 -9 0
-15 -9 -15 -25z"/>
<path d="M1197 1043 c-14 -13 -6 -23 18 -23 16 0 25 6 25 15 0 15 -31 21 -43
8z"/>
<path d="M1137 994 c-16 -16 -6 -35 16 -32 12 2 22 10 22 18 0 16 -26 25 -38
14z"/>
<path d="M1250 985 c0 -11 7 -15 23 -13 12 2 22 8 22 13 0 6 -10 11 -22 13
-16 2 -23 -2 -23 -13z"/>
<path d="M1197 944 c-14 -14 -7 -35 11 -32 9 2 17 10 17 17 0 16 -18 25 -28
15z"/>
<path d="M520 585 l0 -75 48 0 c62 0 91 26 76 68 -8 24 -15 27 -57 30 -42 3
-47 5 -47 28 0 13 -4 24 -10 24 -6 0 -10 -32 -10 -75z m101 -7 c10 -18 8 -24
-10 -39 -28 -23 -65 -11 -69 21 -7 42 58 57 79 18z"/>
<path d="M1290 650 c0 -5 7 -10 16 -10 8 0 12 5 9 10 -3 6 -10 10 -16 10 -5 0
-9 -4 -9 -10z"/>
<path d="M170 580 l0 -70 45 0 c51 0 95 32 95 70 0 38 -44 70 -95 70 l-45 0 0
-70z m98 38 c15 -15 15 -61 0 -76 -7 -7 -27 -12 -45 -12 -33 0 -33 0 -33 50 0
50 0 50 33 50 18 0 38 -5 45 -12z"/>
<path d="M1110 580 l0 -70 60 0 c55 0 62 2 72 25 8 18 8 28 -1 38 -6 8 -9 21
-6 29 11 27 -23 48 -76 48 l-49 0 0 -70z m98 27 c3 -16 -2 -18 -35 -15 -27 2
-39 8 -41 21 -3 16 2 18 35 15 27 -2 39 -8 41 -21z m10 -54 c3 -21 -1 -23 -42
-23 -38 0 -46 3 -46 18 0 27 10 33 50 30 28 -2 36 -8 38 -25z"/>
<path d="M395 612 c-32 -7 -45 -22 -45 -53 0 -18 7 -32 19 -39 24 -12 91 -13
91 -1 0 5 -15 9 -34 9 -19 0 -40 3 -45 7 -22 13 0 24 44 22 36 -2 45 1 45 14
0 28 -38 49 -75 41z m39 -18 c30 -11 16 -24 -25 -24 -36 0 -40 2 -29 15 13 16
29 19 54 9z"/>
<path d="M890 607 c-35 -17 -40 -71 -9 -87 12 -7 34 -9 50 -6 21 4 29 2 29 -8
0 -17 -22 -26 -61 -26 -16 0 -29 -4 -29 -10 0 -13 66 -13 91 0 16 9 19 22 19
75 0 57 -2 65 -19 65 -11 0 -25 2 -33 5 -7 3 -24 -1 -38 -8z m58 -16 c8 -4 12
-19 10 -32 -2 -20 -9 -24 -38 -24 -25 0 -36 5 -38 18 -7 36 33 59 66 38z"/>
<path d="M1400 612 l-35 -3 3 -49 c2 -28 8 -50 13 -50 5 0 9 16 7 35 -3 43 12
60 46 51 21 -5 27 -14 32 -46 4 -22 11 -40 16 -40 8 0 2 75 -8 91 -6 10 -35
14 -74 11z"/>
<path d="M1575 612 c-30 -6 -45 -22 -45 -48 0 -32 41 -58 80 -50 17 3 30 2 30
-2 0 -18 -26 -32 -57 -32 -18 0 -33 -4 -33 -10 0 -5 16 -10 35 -10 53 0 75 28
75 94 0 53 0 54 -32 58 -18 2 -42 2 -53 0z m53 -21 c8 -4 12 -19 10 -32 -2
-20 -9 -24 -37 -24 -44 0 -65 29 -37 51 22 16 45 18 64 5z"/>
<path d="M1737 608 c-60 -21 -38 -98 29 -98 50 0 79 40 56 77 -13 20 -55 31
-85 21z m54 -18 c25 -14 24 -35 -2 -53 -25 -18 -56 -11 -64 15 -13 37 25 59
66 38z"/>
<path d="M690 579 c0 -55 15 -69 70 -67 l50 2 0 48 c0 26 -4 48 -10 48 -5 0
-10 -16 -10 -35 0 -30 -19 -55 -44 -55 -15 0 -36 35 -36 61 0 16 -4 29 -10 29
-5 0 -10 -14 -10 -31z"/>
<path d="M1290 560 c0 -27 5 -50 10 -50 6 0 10 23 10 50 0 28 -4 50 -10 50 -5
0 -10 -22 -10 -50z"/>
</g>
</svg>
